<svg xmlns="http://www.w3.org/2000/svg" viewBox="0 0 400 400" role="img" aria-label="AIDaR: loose measurements on the left taken up into a structured knowledge graph on the right">
  <rect width="400" height="400" fill="#ffffff"/>
  <line x1="200" y1="70.84" x2="256.16" y2="133.24" stroke="#202124" stroke-width="6.5" stroke-linecap="round"/>
  <line x1="256.16" y1="133.24" x2="187.52" y2="173.8" stroke="#202124" stroke-width="6.5" stroke-linecap="round"/>
  <line x1="256.16" y1="133.24" x2="312.32" y2="102.04" stroke="#202124" stroke-width="6.5" stroke-linecap="round"/>
  <line x1="256.16" y1="133.24" x2="293.6" y2="214.36" stroke="#202124" stroke-width="6.5" stroke-linecap="round"/>
  <line x1="187.52" y1="173.8" x2="231.2" y2="258.04" stroke="#202124" stroke-width="6.5" stroke-linecap="round"/>
  <line x1="293.6" y1="214.36" x2="231.2" y2="258.04" stroke="#202124" stroke-width="6.5" stroke-linecap="round"/>
  <line x1="122" y1="264.28" x2="187.52" y2="173.8" stroke="#9aa0a6" stroke-width="6.5" stroke-linecap="round" stroke-dasharray="15.6 15.6"/>
  <circle cx="90.8" cy="95.8" r="11.52" fill="#9aa0a6"/>
  <circle cx="81.44" cy="201.88" r="11.52" fill="#9aa0a6"/>
  <circle cx="122" cy="264.28" r="11.52" fill="#9aa0a6"/>
  <circle cx="112.64" cy="145.72" r="11.52" fill="#9aa0a6"/>
  <circle cx="200" cy="70.84" r="16" fill="#202124"/>
  <circle cx="256.16" cy="133.24" r="16" fill="#202124"/>
  <circle cx="187.52" cy="173.8" r="16" fill="#202124"/>
  <circle cx="293.6" cy="214.36" r="16" fill="#202124"/>
  <circle cx="312.32" cy="102.04" r="16" fill="#202124"/>
  <circle cx="231.2" cy="258.04" r="16" fill="#202124"/>
  <text x="200" y="378" text-anchor="middle" font-family="Georgia, ui-serif, serif" font-size="58" fill="#202124" letter-spacing="-0.5">AID<tspan font-style="italic">a</tspan>R</text>
</svg>
